<svg width="64" height="66" viewBox="0 0 64 66" fill="none" xmlns="http://www.w3.org/2000/svg">
<path d="M57.7639 48.6303C56.9106 49.0766 56.0307 49.4698 55.129 49.8077C52.2591 50.8816 49.2189 51.4287 46.1546 51.4226C34.3254 51.4226 24.021 43.2856 24.021 32.8438C24.0361 31.4433 24.4248 30.0722 25.1468 28.8721C25.8688 27.6719 26.898 26.6862 28.1282 26.0167C17.4289 26.4667 14.6791 37.616 14.6791 44.1481C14.6791 62.6169 31.7005 64.4893 35.3678 64.4893C37.3452 64.4893 40.3275 63.9143 42.1174 63.3494L42.4448 63.2394C49.3325 60.8583 55.2043 56.2032 59.0938 50.0402C59.2129 49.8525 59.2661 49.6305 59.245 49.4092C59.2238 49.1879 59.1295 48.98 58.977 48.8183C58.8244 48.6565 58.6223 48.5503 58.4027 48.5162C58.183 48.4822 57.9582 48.5223 57.7639 48.6303Z" fill="url(#paint0_linear_1683_5665)"/>
<path d="M57.7639 48.6303C56.9106 49.0766 56.0307 49.4698 55.129 49.8077C52.2591 50.8816 49.2189 51.4287 46.1546 51.4226C34.3254 51.4226 24.021 43.2856 24.021 32.8438C24.0361 31.4433 24.4248 30.0722 25.1468 28.8721C25.8688 27.6719 26.898 26.6862 28.1282 26.0167C17.4289 26.4667 14.6791 37.616 14.6791 44.1481C14.6791 62.6169 31.7005 64.4893 35.3678 64.4893C37.3452 64.4893 40.3275 63.9143 42.1174 63.3494L42.4448 63.2394C49.3325 60.8583 55.2043 56.2032 59.0938 50.0402C59.2129 49.8525 59.2661 49.6305 59.245 49.4092C59.2238 49.1879 59.1295 48.98 58.977 48.8183C58.8244 48.6565 58.6223 48.5503 58.4027 48.5162C58.183 48.4822 57.9582 48.5223 57.7639 48.6303Z" fill="url(#paint1_radial_1683_5665)"/>
<path d="M26.4308 61.3495C24.2011 59.9656 22.2688 58.1522 20.7462 56.0148C19.0108 53.6372 17.8166 50.9087 17.2473 48.0206C16.6781 45.1326 16.7476 42.1549 17.451 39.2966C18.1544 36.4382 19.4746 33.7684 21.3191 31.4743C23.1636 29.1803 25.4876 27.3175 28.1282 26.0167C28.9082 25.6492 30.2406 24.9843 32.013 25.0168C33.2617 25.0259 34.4913 25.324 35.6055 25.8878C36.7197 26.4517 37.6882 27.2658 38.4351 28.2666C39.4446 29.6145 40.0012 31.2475 40.025 32.9313C40.025 32.8788 46.1396 13.0325 20.0262 13.0325C9.05193 13.0325 0.0274982 23.4469 0.0274982 32.5838C-0.0157893 37.4171 1.01837 42.1994 3.05481 46.5829C6.38292 53.6839 12.2029 59.3155 19.4095 62.4082C26.6161 65.5009 34.7076 65.8394 42.1474 63.3594C39.5424 64.1807 36.7903 64.4272 34.0809 64.082C31.3714 63.7367 28.7691 62.8079 26.4533 61.3595L26.4308 61.3495Z" fill="url(#paint2_linear_1683_5665)"/>
<path d="M26.4308 61.3495C24.2011 59.9656 22.2688 58.1522 20.7462 56.0148C19.0108 53.6372 17.8166 50.9087 17.2473 48.0206C16.6781 45.1326 16.7476 42.1549 17.451 39.2966C18.1544 36.4382 19.4746 33.7684 21.3191 31.4743C23.1636 29.1803 25.4876 27.3175 28.1282 26.0167C28.9082 25.6492 30.2406 24.9843 32.013 25.0168C33.2617 25.0259 34.4913 25.324 35.6055 25.8878C36.7197 26.4517 37.6882 27.2658 38.4351 28.2666C39.4446 29.6145 40.0012 31.2475 40.025 32.9313C40.025 32.8788 46.1396 13.0325 20.0262 13.0325C9.05193 13.0325 0.0274982 23.4469 0.0274982 32.5838C-0.0157893 37.4171 1.01837 42.1994 3.05481 46.5829C6.38292 53.6839 12.2029 59.3155 19.4095 62.4082C26.6161 65.5009 34.7076 65.8394 42.1474 63.3594C39.5424 64.1807 36.7903 64.4272 34.0809 64.082C31.3714 63.7367 28.7691 62.8079 26.4533 61.3595L26.4308 61.3495Z" fill="url(#paint3_radial_1683_5665)"/>
<path d="M38.0801 38.211C37.8776 38.4734 37.2552 38.8359 37.2552 39.6259C37.2552 40.2783 37.6801 40.9058 38.4351 41.4333C42.0299 43.9331 48.8069 43.6031 48.8244 43.6031C51.4881 43.5967 54.1013 42.8759 56.3915 41.5158C58.7018 40.1667 60.6193 38.2371 61.9537 35.9182C63.2881 33.5994 63.993 30.972 63.9985 28.2966C64.0635 22.6944 61.9986 18.9697 61.1637 17.3198C55.8665 6.95792 44.4322 0.998291 31.998 0.998291C23.589 0.99746 15.5176 4.30683 9.52961 10.2106C3.54159 16.1145 0.118252 24.1381 0 32.5463C0.119992 23.4119 9.19943 16.0349 19.9987 16.0349C20.8737 16.0349 25.8634 16.1198 30.4981 18.5522C34.5828 20.6971 36.7227 23.2869 38.2101 25.8542C39.755 28.5216 40.03 31.8914 40.03 33.2338C40.03 34.5762 39.345 36.5661 38.0801 38.211Z" fill="url(#paint4_radial_1683_5665)"/>
<path d="M38.0801 38.211C37.8776 38.4734 37.2552 38.8359 37.2552 39.6259C37.2552 40.2783 37.6801 40.9058 38.4351 41.4333C42.0299 43.9331 48.8069 43.6031 48.8244 43.6031C51.4881 43.5967 54.1013 42.8759 56.3915 41.5158C58.7018 40.1667 60.6193 38.2371 61.9537 35.9182C63.2881 33.5994 63.993 30.972 63.9985 28.2966C64.0635 22.6944 61.9986 18.9697 61.1637 17.3198C55.8665 6.95792 44.4322 0.998291 31.998 0.998291C23.589 0.99746 15.5176 4.30683 9.52961 10.2106C3.54159 16.1145 0.118252 24.1381 0 32.5463C0.119992 23.4119 9.19943 16.0349 19.9987 16.0349C20.8737 16.0349 25.8634 16.1198 30.4981 18.5522C34.5828 20.6971 36.7227 23.2869 38.2101 25.8542C39.755 28.5216 40.03 31.8914 40.03 33.2338C40.03 34.5762 39.345 36.5661 38.0801 38.211Z" fill="url(#paint5_radial_1683_5665)"/>
<defs>
<linearGradient id="paint0_linear_1683_5665" x1="0" y1="33.0082" x2="64.0169" y2="33.0082" gradientUnits="userSpaceOnUse">
<stop stop-color="#0C59A4"/>
<stop offset="1" stop-color="#114A8B"/>
</linearGradient>
<radialGradient id="paint1_radial_1683_5665" cx="0" cy="0" r="1" gradientUnits="userSpaceOnUse" gradientTransform="translate(35.3576 33.5927) scale(34.2376 37.6829)">
<stop offset="0.72" stop-opacity="0"/>
<stop offset="0.95" stop-opacity="0.53"/>
<stop offset="1"/>
</radialGradient>
<linearGradient id="paint2_linear_1683_5665" x1="57.9759" y1="16.8691" x2="25.0068" y2="61.1739" gradientUnits="userSpaceOnUse">
<stop stop-color="#1B9DE2"/>
<stop offset="0.16" stop-color="#1595DF"/>
<stop offset="0.67" stop-color="#0680D7"/>
<stop offset="1" stop-color="#0078D4"/>
</linearGradient>
<radialGradient id="paint3_radial_1683_5665" cx="0" cy="0" r="1" gradientUnits="userSpaceOnUse" gradientTransform="translate(26.7743 47.4464) rotate(-79.4119) scale(44.4148 43.7571)">
<stop offset="0.76" stop-opacity="0"/>
<stop offset="0.95" stop-opacity="0.5"/>
<stop offset="1"/>
</radialGradient>
<radialGradient id="paint4_radial_1683_5665" cx="0" cy="0" r="1" gradientUnits="userSpaceOnUse" gradientTransform="translate(6.46522 18.7842) rotate(91.5258) scale(76.0218 107.911)">
<stop stop-color="#35C1F1"/>
<stop offset="0.11" stop-color="#34C1ED"/>
<stop offset="0.23" stop-color="#2FC2DF"/>
<stop offset="0.31" stop-color="#2BC3D2"/>
<stop offset="0.67" stop-color="#36C752"/>
</radialGradient>
<radialGradient id="paint5_radial_1683_5665" cx="0" cy="0" r="1" gradientUnits="userSpaceOnUse" gradientTransform="translate(60.0143 20.3486) rotate(73.7398) scale(24.3335 19.788)">
<stop stop-color="#66EB6E"/>
<stop offset="1" stop-color="#66EB6E" stop-opacity="0"/>
</radialGradient>
</defs>
</svg>
