<svg width="64" height="64" viewBox="0 0 64 64" fill="none" xmlns="http://www.w3.org/2000/svg">
<path d="M31.9167 0.00571819C31.9167 0.00571819 50.7838 -0.84033 60.7832 18.0498H30.3124C30.3124 18.0498 24.5576 17.8612 19.652 24.8169C18.2373 27.7306 16.7282 30.738 18.426 36.6579C15.9734 32.5236 5.40753 14.1969 5.40753 14.1969C5.40753 14.1969 12.8609 0.757257 31.9167 0.00571819Z" fill="#C6352E"/>
<path d="M59.801 47.9672C59.801 47.9672 51.1006 64.6663 29.6793 63.8455C32.3219 59.2886 44.9183 37.5582 44.9183 37.5582C44.9183 37.5582 47.9594 32.6881 44.3685 24.9778C42.543 22.2998 40.684 19.4936 34.6882 17.9974C39.5102 17.9497 60.7227 18.0005 60.7227 18.0005C60.7227 18.0005 68.6773 31.1515 59.801 47.9672Z" fill="#F4D911"/>
<path d="M4.16664 48.0941C4.16664 48.0941 -5.99895 32.236 5.42662 14.1662C8.06685 18.7248 20.6565 40.459 20.6565 40.459C20.6565 40.459 23.3687 45.5177 31.8672 46.2753C35.1069 46.0399 38.4765 45.839 42.7751 41.4148C40.4051 45.5981 29.7535 63.8748 29.7535 63.8748C29.7535 63.8748 14.3446 64.1609 4.16664 48.0941Z" fill="#81B354"/>
<path d="M29.6793 64L33.9654 46.1818C33.9654 46.1818 38.6782 45.8155 42.627 41.4977C40.1756 45.7938 29.6793 64 29.6793 64Z" fill="#7BAA50"/>
<path d="M17.5619 32.1994C17.5619 24.3446 23.9529 17.9769 31.838 17.9769C39.7224 17.9769 46.1139 24.3445 46.1139 32.1994C46.1139 40.0547 39.7227 46.4225 31.838 46.4225C23.9529 46.4225 17.5619 40.0548 17.5619 32.1994Z" fill="white"/>
<path d="M19.9512 32.1994C19.9512 25.6596 25.2728 20.3578 31.838 20.3578C38.4019 20.3578 43.7241 25.6596 43.7241 32.1994C43.7241 38.7394 38.4019 44.0416 31.838 44.0416C25.2728 44.0417 19.9512 38.7391 19.9512 32.1994Z" fill="url(#paint0_linear_1683_5653)"/>
<path d="M60.7228 18.0005L43.0738 23.1556C43.0738 23.1556 40.4125 19.2647 34.6881 17.9974C39.6481 17.9806 60.7228 18.0005 60.7228 18.0005Z" fill="#E7CE12"/>
<path d="M18.0828 36.0184C15.6025 31.7392 5.40811 14.1964 5.40811 14.1964L18.4821 27.081C18.4821 27.081 17.1385 29.8343 17.648 33.7669L18.0828 36.0184Z" fill="#BC332C"/>
<defs>
<linearGradient id="paint0_linear_1683_5653" x1="31.9998" y1="0.452664" x2="31.9998" y2="62.0854" gradientUnits="userSpaceOnUse">
<stop stop-color="#A2C0E6"/>
<stop offset="1" stop-color="#406CB1"/>
</linearGradient>
</defs>
</svg>
