<svg width="64" height="64" viewBox="0 0 64 64" fill="none" xmlns="http://www.w3.org/2000/svg">
<path d="M21.475 50.025C17.925 45.85 15.65 39.675 15.5 32.75V31.25C15.65 24.325 17.95 18.15 21.475 13.975C26.075 8.025 32.825 5.35 40.45 5.35C45.15 5.35 49.575 5.675 53.325 8.175C47.7 3.1 40.275 0.025 32.125 0H32C14.325 0 0 14.325 0 32C0 49.15 13.5 63.175 30.475 63.975C30.975 64 31.5 64 32 64C40.2 64 47.675 60.925 53.325 55.85C49.575 58.35 45.4 58.45 40.7 58.45C33.1 58.475 26.05 56 21.475 50.025Z" fill="url(#paint0_linear_1683_5671)"/>
<path d="M21.475 13.975C24.4 10.5 28.2 8.425 32.35 8.425C41.675 8.425 49.225 18.975 49.225 32.025C49.225 45.075 41.675 55.625 32.35 55.625C28.2 55.625 24.425 53.525 21.475 50.075C26.075 56.025 32.9 59.825 40.5 59.825C45.175 59.825 49.575 58.4 53.325 55.9C59.875 50 64 41.475 64 32C64 22.525 59.875 14 53.325 8.15C49.575 5.65 45.2 4.225 40.5 4.225C32.875 4.225 26.05 8 21.475 13.975Z" fill="url(#paint1_linear_1683_5671)"/>
<defs>
<linearGradient id="paint0_linear_1683_5671" x1="3200.19" y1="104.32" x2="3200.19" y2="6306.88" gradientUnits="userSpaceOnUse">
<stop offset="0.3" stop-color="#FF1B2D"/>
<stop offset="0.4381" stop-color="#FA1A2C"/>
<stop offset="0.5939" stop-color="#ED1528"/>
<stop offset="0.7581" stop-color="#D60E21"/>
<stop offset="0.9272" stop-color="#B70519"/>
<stop offset="1" stop-color="#A70014"/>
</linearGradient>
<linearGradient id="paint1_linear_1683_5671" x1="2147.3" y1="51.6518" x2="2147.3" y2="5537.48" gradientUnits="userSpaceOnUse">
<stop stop-color="#9C0000"/>
<stop offset="0.7" stop-color="#FF4B4B"/>
</linearGradient>
</defs>
</svg>
