<svg width="64" height="64" viewBox="0 0 64 64" fill="none" xmlns="http://www.w3.org/2000/svg">
<path d="M32 64C49.6731 64 64 49.6731 64 32C64 14.3269 49.6731 0 32 0C14.3269 0 0 14.3269 0 32C0 49.6731 14.3269 64 32 64Z" fill="url(#paint0_linear_1683_5659)"/>
<path d="M32 61.6C48.3476 61.6 61.6 48.3476 61.6 32C61.6 15.6524 48.3476 2.4 32 2.4C15.6524 2.4 2.4 15.6524 2.4 32C2.4 48.3476 15.6524 61.6 32 61.6Z" fill="url(#paint1_radial_1683_5659)"/>
<path d="M32.0501 9.6C31.8501 9.6 31.6751 9.45006 31.6751 9.25006V4.02503C31.6751 3.82503 31.8501 3.6751 32.0501 3.6751C32.2501 3.6751 32.425 3.82503 32.425 4.02503V9.25006C32.4 9.45006 32.2501 9.6 32.0501 9.6Z" fill="#F3F3F3"/>
<path d="M32.0501 9.62503C31.825 9.62503 31.6501 9.45007 31.6501 9.25007V4.02503C31.6501 3.82503 31.825 3.65006 32.0501 3.65006C32.2751 3.65006 32.4501 3.82503 32.4501 4.02503V9.25007C32.4501 9.45007 32.2501 9.62503 32.0501 9.62503ZM32.0501 3.69987C31.8751 3.69987 31.7001 3.85006 31.7001 4.02503V9.25007C31.7001 9.42503 31.8501 9.57523 32.0501 9.57523C32.225 9.57523 32.4 9.42503 32.4 9.25007V4.02503C32.3752 3.85006 32.225 3.69987 32.0501 3.69987Z" fill="white"/>
<path d="M34.5502 6.8C34.3502 6.77497 34.2003 6.62503 34.2003 6.42503L34.3752 4.09987C34.4 3.90013 34.5752 3.74994 34.7752 3.77497C34.9752 3.8 35.1252 3.95019 35.1252 4.15019L34.9502 6.4751C34.9252 6.6751 34.7502 6.82477 34.5502 6.8Z" fill="#F3F3F3"/>
<path d="M34.5502 6.82503C34.3252 6.8 34.1752 6.62503 34.1752 6.42503L34.3502 4.09987C34.3752 3.90013 34.5502 3.72516 34.7752 3.74994C35 3.77497 35.1502 3.95019 35.1502 4.14994L34.9752 6.4751C34.9502 6.70013 34.7752 6.85006 34.5502 6.82503ZM34.7752 3.8C34.6003 3.8 34.425 3.92516 34.425 4.10013L34.2501 6.42529C34.2501 6.6 34.3752 6.75019 34.5752 6.77497C34.7502 6.77497 34.9252 6.65006 34.9252 6.4751L35.1001 4.14994C35.1001 3.97497 34.9505 3.82503 34.7752 3.8Z" fill="white"/>
<path d="M36.4253 10.0501C36.225 10 36.1001 9.82503 36.1252 9.62503L37.1502 4.49987C37.2003 4.30013 37.3752 4.17497 37.5752 4.22503C37.7752 4.2751 37.9001 4.45006 37.8751 4.65006L36.8501 9.77523C36.825 9.94994 36.625 10.0751 36.425 10.0501H36.4253Z" fill="#F3F3F3"/>
<path d="M36.4253 10.0751C36.2 10.025 36.0751 9.82503 36.1001 9.62503L37.1252 4.49987C37.1752 4.30013 37.3752 4.14994 37.6 4.2C37.825 4.25006 37.9502 4.45006 37.9252 4.65006L36.9001 9.77523C36.8501 9.97497 36.6501 10.1001 36.4253 10.0751ZM37.6 4.25006C37.425 4.22503 37.2501 4.3249 37.2 4.50013L36.1752 9.62529C36.1502 9.8 36.2501 9.97497 36.4501 10.0253C36.625 10.0501 36.8 9.94994 36.8501 9.77497L37.8751 4.65006C37.9001 4.45006 37.7752 4.30013 37.6 4.25006Z" fill="white"/>
<path d="M39.425 7.8C39.3774 7.78852 39.3325 7.76777 39.2929 7.73894C39.2534 7.7101 39.2198 7.67374 39.1943 7.63194C39.1688 7.59014 39.1518 7.54372 39.1442 7.49533C39.1366 7.44694 39.1387 7.39753 39.1502 7.34994L39.7752 5.10013C39.825 4.90013 40.025 4.8 40.225 4.85006C40.425 4.90013 40.5502 5.10013 40.5001 5.30013L39.8751 7.55019C39.825 7.74994 39.625 7.85006 39.425 7.8Z" fill="#F3F3F3"/>
<path d="M39.425 7.82503C39.225 7.77497 39.0751 7.54994 39.1502 7.35019L39.7752 5.09987C39.825 4.90013 40.0501 4.77497 40.2501 4.82503C40.4501 4.8751 40.6 5.10013 40.5252 5.29987L39.9001 7.55019C39.8501 7.74994 39.6501 7.8751 39.4253 7.82503H39.425ZM40.2501 4.90013C40.0751 4.85006 39.8751 4.95019 39.825 5.12516L39.2003 7.37497C39.1502 7.54994 39.2501 7.72516 39.4501 7.77497C39.625 7.82503 39.825 7.72516 39.8751 7.55019L40.5001 5.29987C40.5252 5.12516 40.4253 4.95019 40.2501 4.89987V4.90013Z" fill="white"/>
<path d="M40.6501 11.3252C40.4501 11.2501 40.3752 11.025 40.4501 10.8501L42.4501 6.02503C42.5249 5.85007 42.7502 5.74994 42.9249 5.85007C43.1252 5.9249 43.2003 6.15019 43.1252 6.3249L41.1252 11.1499C41.0503 11.3252 40.825 11.425 40.6503 11.3252H40.6501Z" fill="#F3F3F3"/>
<path d="M40.6501 11.3502C40.554 11.3136 40.4764 11.2404 40.4342 11.1466C40.392 11.0529 40.3887 10.9462 40.425 10.8501L42.425 6.02503C42.5001 5.82503 42.7252 5.74994 42.9502 5.82503C43.0463 5.86164 43.1239 5.93484 43.1661 6.02859C43.2083 6.12234 43.2115 6.22899 43.1752 6.32516L41.1752 11.1502C41.0751 11.3502 40.8501 11.4501 40.6501 11.3502ZM42.9252 5.8751C42.7502 5.80026 42.5502 5.8751 42.4751 6.05006L40.4751 10.8751C40.4003 11.0501 40.5001 11.225 40.6751 11.3001C40.8501 11.375 41.0501 11.3001 41.1252 11.1252L43.1252 6.30013C43.1752 6.14994 43.1001 5.94993 42.9252 5.8751Z" fill="white"/>
<path d="M44.0253 9.72516C43.8501 9.62503 43.775 9.42503 43.8501 9.25006L44.9001 7.17523C45 7 45.2 6.9249 45.4003 7.02503C45.5752 7.12516 45.6501 7.32516 45.5752 7.49987L44.5249 9.57497C44.425 9.74994 44.225 9.82529 44.025 9.72516H44.0253Z" fill="#F3F3F3"/>
<path d="M44.0253 9.75019C43.825 9.65006 43.7502 9.42503 43.8501 9.22503L44.9001 7.15019C45 6.94994 45.2253 6.8751 45.425 6.97497C45.625 7.0751 45.7001 7.30013 45.6 7.50013L44.5502 9.57497C44.4501 9.77497 44.225 9.85006 44.025 9.74994L44.0253 9.75019ZM45.4003 7.02503C45.225 6.95019 45.025 7 44.9502 7.17497L43.9001 9.25006C43.8253 9.4 43.9001 9.6 44.0501 9.70013C44.225 9.77497 44.425 9.72516 44.5001 9.55019L45.5502 7.4751C45.625 7.32516 45.5502 7.12516 45.4003 7.02503Z" fill="white"/>
<path d="M44.5252 13.425C44.3502 13.3001 44.3001 13.0751 44.425 12.9252L47.3252 8.6C47.425 8.42503 47.6503 8.4 47.825 8.50013C48.0003 8.62503 48.0501 8.85006 47.9252 9L45.025 13.3252C44.9252 13.5001 44.7001 13.5502 44.5252 13.425Z" fill="#F3F3F3"/>
<path d="M44.5252 13.4501C44.3502 13.3252 44.3001 13.0751 44.4003 12.9001L47.3001 8.57497C47.425 8.4 47.6501 8.34994 47.8501 8.4751C48.025 8.6 48.0751 8.85006 47.9752 9.02503L45.0751 13.3502C44.9502 13.5252 44.7001 13.575 44.5252 13.4501ZM47.825 8.52516C47.6754 8.42503 47.4501 8.45006 47.3502 8.6L44.4501 12.9252C44.3502 13.0748 44.4 13.2751 44.5502 13.375C44.7001 13.4751 44.9252 13.4501 45.025 13.3001L47.9252 9C48.025 8.85006 47.9752 8.62503 47.825 8.52516Z" fill="white"/>
<path d="M48.175 12.5001C48.0253 12.375 47.9752 12.1499 48.1001 12L49.5502 10.175C49.6751 10.0253 49.9001 10 50.0501 10.1252C50.2003 10.2501 50.2501 10.4751 50.1249 10.625L48.6751 12.4501C48.5502 12.6 48.3249 12.625 48.175 12.5001Z" fill="#F3F3F3"/>
<path d="M48.1502 12.5252C47.9752 12.4 47.9502 12.1499 48.0754 11.975L49.5252 10.1502C49.6501 9.97497 49.9001 9.94994 50.0751 10.1001C50.2501 10.225 50.2751 10.4751 50.1499 10.6501L48.7001 12.4751C48.5752 12.6501 48.3252 12.6751 48.1502 12.5252ZM50.025 10.1499C49.8754 10.025 49.6751 10.0501 49.5502 10.2L48.1001 12.025C48.0003 12.175 48.0253 12.375 48.175 12.4999C48.3252 12.625 48.5252 12.6 48.6501 12.4501L50.1001 10.625C50.2003 10.4751 50.175 10.2501 50.0253 10.1502L50.025 10.1499Z" fill="white"/>
<path d="M47.9252 16.2501C47.7752 16.1001 47.7752 15.8751 47.9252 15.7499L51.625 12.0751C51.7752 11.9252 52 11.9499 52.1252 12.0751C52.2501 12.2 52.2751 12.4501 52.1252 12.575L48.4503 16.2501C48.3001 16.4 48.0751 16.4 47.9252 16.2501Z" fill="#F3F3F3"/>
<path d="M47.9001 16.2751C47.828 16.2017 47.7876 16.103 47.7876 16.0001C47.7876 15.8973 47.828 15.7985 47.9001 15.7252L51.6 12.0501C51.6734 11.9779 51.7722 11.9374 51.8751 11.9374C51.978 11.9374 52.0768 11.9779 52.1502 12.0501C52.2223 12.1234 52.2627 12.2222 52.2627 12.325C52.2627 12.4279 52.2223 12.5266 52.1502 12.6L48.4501 16.2748C48.3767 16.3469 48.278 16.3873 48.1751 16.3873C48.0722 16.3873 47.9735 16.3472 47.9001 16.2751ZM52.1252 12.0751C52.0003 11.9499 51.7752 11.9499 51.6503 12.0751L47.9502 15.7499C47.825 15.8751 47.825 16.1001 47.9502 16.225C48.0751 16.3502 48.3001 16.3502 48.425 16.225L52.1252 12.5502C52.2501 12.425 52.2501 12.225 52.1252 12.0751Z" fill="white"/>
<path d="M51.6751 16.0501C51.5502 15.9001 51.5502 15.6751 51.7001 15.5499L53.4751 14.0501C53.625 13.9252 53.8501 13.9499 53.9752 14.1001C54.1001 14.2501 54.1001 14.4751 53.9502 14.6L52.1752 16.1001C52.025 16.225 51.8 16.2 51.6751 16.0501Z" fill="#F3F3F3"/>
<path d="M51.6501 16.0751C51.5001 15.9001 51.5252 15.6501 51.6751 15.5252L53.4501 14.025C53.6 13.8751 53.8501 13.9001 54 14.0751C54.1502 14.2501 54.1252 14.5001 53.9752 14.625L52.2 16.1252C52.0503 16.2748 51.8 16.2501 51.6503 16.0751H51.6501ZM53.9502 14.1001C53.825 13.9502 53.625 13.9502 53.4754 14.0501L51.7001 15.5502C51.5752 15.6751 51.5502 15.8751 51.6751 16.025C51.8 16.175 52.0003 16.175 52.1499 16.0751L53.9252 14.575C54.0751 14.4501 54.0751 14.2501 53.9502 14.1001Z" fill="white"/>
<path d="M50.6751 19.6501C50.5502 19.4751 50.6003 19.2501 50.7752 19.1499L55.1252 16.2501C55.3001 16.1499 55.5252 16.2 55.625 16.3502C55.7502 16.5252 55.7001 16.7502 55.5252 16.8501L51.1752 19.7499C51.025 19.8501 50.8 19.8 50.6751 19.6501Z" fill="#F3F3F3"/>
<path d="M50.6501 19.6501C50.5252 19.4751 50.5752 19.225 50.7502 19.1001L55.1001 16.2C55.2751 16.0751 55.5252 16.1252 55.6501 16.3252C55.7752 16.5001 55.7249 16.7502 55.5502 16.8748L51.2003 19.7752C51.025 19.9004 50.7752 19.8501 50.6501 19.6501ZM55.6 16.3752C55.5001 16.225 55.3001 16.175 55.1502 16.2751L50.8 19.175C50.6503 19.2751 50.6 19.4751 50.7252 19.6501C50.825 19.8 51.025 19.8501 51.1752 19.7502L55.5252 16.8501C55.6751 16.7252 55.7001 16.5249 55.6 16.3752Z" fill="white"/>
<path d="M54.4003 20.1752C54.3001 20 54.3502 19.7752 54.5252 19.6751L56.5502 18.5252C56.7252 18.425 56.9502 18.5001 57.0501 18.6748C57.1502 18.8501 57.1001 19.0748 56.9252 19.175L54.9001 20.3252C54.7252 20.425 54.5001 20.3502 54.4 20.175L54.4003 20.1752Z" fill="#F3F3F3"/>
<path d="M54.3752 20.2C54.2751 20 54.3252 19.775 54.5001 19.6751L56.5252 18.5252C56.7001 18.425 56.9502 18.5001 57.0501 18.6748C57.1502 18.8751 57.1001 19.1001 56.9252 19.2L54.9001 20.3502C54.7252 20.4501 54.4751 20.375 54.3752 20.2ZM57.025 18.7001C56.9252 18.5252 56.7252 18.4751 56.5752 18.575L54.5502 19.7252C54.4003 19.825 54.3502 20.025 54.425 20.175C54.5252 20.3499 54.7252 20.4 54.8751 20.3001L56.9001 19.1499C57.0501 19.0751 57.1001 18.8751 57.025 18.7001Z" fill="white"/>
<path d="M52.7252 23.5001C52.6503 23.3001 52.7252 23.1001 52.9252 23.0253L57.7502 21.0253C57.9252 20.9502 58.1502 21.0501 58.225 21.225C58.3001 21.425 58.225 21.625 58.025 21.6999L53.2003 23.6999C53.025 23.775 52.8003 23.6999 52.7252 23.5001Z" fill="#F3F3F3"/>
<path d="M52.7001 23.5249C52.6253 23.3252 52.7001 23.1001 52.9001 23L57.7252 21C57.8213 20.9638 57.9279 20.9671 58.0216 21.0093C58.1153 21.0515 58.1884 21.129 58.225 21.225C58.3001 21.425 58.225 21.6501 58.025 21.7499L53.2003 23.7499C53.1041 23.7863 52.9975 23.783 52.9038 23.7409C52.81 23.6987 52.7368 23.6209 52.7001 23.5249ZM58.1752 21.2501C58.1001 21.0751 57.9001 21 57.7502 21.0501L52.9252 23.0501C52.7502 23.1249 52.6751 23.3252 52.7502 23.5001C52.825 23.6751 53.025 23.7502 53.1752 23.7001L58 21.7001C58.1752 21.6253 58.2503 21.425 58.1752 21.2501Z" fill="white"/>
<path d="M56.2501 24.7502C56.1752 24.5499 56.2751 24.3502 56.4751 24.2751L58.6751 23.5499C58.8501 23.4751 59.0751 23.6 59.1252 23.775C59.2 23.975 59.1001 24.175 58.9001 24.2501L56.7001 24.9752C56.5252 25.0501 56.3252 24.9502 56.2501 24.7499V24.7502Z" fill="#F3F3F3"/>
<path d="M56.225 24.775C56.1502 24.575 56.2501 24.3499 56.4754 24.2751L58.6751 23.5499C58.8751 23.4751 59.1001 23.6 59.1752 23.8003C59.2501 24 59.1502 24.225 58.9249 24.3001L56.7252 25.0253C56.5252 25.0751 56.3001 24.975 56.225 24.775ZM59.1252 23.8253C59.0751 23.6501 58.8751 23.5499 58.7001 23.6L56.5001 24.3252C56.3252 24.375 56.2501 24.575 56.3001 24.7502C56.3502 24.9252 56.5502 25.025 56.7252 24.975L58.9252 24.2501C59.1001 24.1752 59.1752 24.0003 59.1252 23.8253Z" fill="white"/>
<path d="M54.0003 27.7252C53.9502 27.5252 54.0751 27.3252 54.2751 27.3001L59.4003 26.3001C59.6 26.2501 59.7752 26.4 59.825 26.6C59.8751 26.8 59.7502 27 59.5502 27.025L54.425 28.025C54.225 28.0501 54.025 27.9252 54 27.7252H54.0003Z" fill="#F3F3F3"/>
<path d="M53.9502 27.7252C53.9001 27.5001 54.0501 27.3001 54.2501 27.2501L59.3752 26.2501C59.5752 26.2 59.7752 26.3502 59.825 26.5752C59.8751 26.8 59.7252 27 59.5252 27.0501L54.4 28.0501C54.2003 28.1001 54 27.9502 53.9502 27.7249V27.7252ZM59.7752 26.6C59.7502 26.425 59.5752 26.3001 59.4003 26.3252L54.2751 27.3252C54.1001 27.3502 53.9752 27.5499 54.025 27.7252C54.0501 27.9001 54.225 28.025 54.4003 28L59.5252 27C59.7001 26.9499 59.825 26.775 59.7752 26.6Z" fill="white"/>
<path d="M57.2003 29.6501C57.1752 29.4501 57.3001 29.2751 57.5001 29.2501L59.8 28.975C60 28.9502 60.1752 29.1001 60.2 29.3001C60.225 29.5001 60.1001 29.6751 59.9001 29.7001L57.6 29.975C57.425 30 57.2253 29.8501 57.2003 29.6501Z" fill="#F3F3F3"/>
<path d="M57.1752 29.6501C57.1502 29.425 57.3001 29.225 57.5001 29.2L59.8 28.9252C60 28.9001 60.2 29.0501 60.225 29.2751C60.2501 29.5001 60.1001 29.7001 59.9001 29.7252L57.6 30C57.4003 30.025 57.2 29.8751 57.1752 29.6501ZM60.2 29.3001C60.1752 29.1252 60.0003 28.975 59.825 29L57.5252 29.2751C57.3502 29.3001 57.225 29.4751 57.2501 29.6501C57.2751 29.825 57.4501 29.9752 57.625 29.9502L59.9252 29.6751C60.1001 29.6501 60.2248 29.4751 60.2 29.3001Z" fill="white"/>
<path d="M54.4003 32.0751C54.4003 31.8751 54.5499 31.7001 54.7502 31.7001H59.9752C60.1752 31.7001 60.3252 31.8751 60.3252 32.0751C60.3252 32.2751 60.1752 32.4501 59.9752 32.4501H54.7502C54.5502 32.4501 54.4003 32.2751 54.4003 32.0751Z" fill="#F3F3F3"/>
<path d="M54.3752 32.0751C54.3752 31.8501 54.5502 31.6751 54.7502 31.6751H59.9752C60.1752 31.6751 60.3502 31.8501 60.3502 32.0751C60.3502 32.3001 60.1752 32.4751 59.9752 32.4751H54.7502C54.5502 32.4751 54.3752 32.3001 54.3752 32.0751ZM60.3001 32.1001C60.3001 31.9252 60.1502 31.7502 59.975 31.7502H54.7505C54.5755 31.7502 54.4253 31.8999 54.4253 32.1001C54.4253 32.2751 54.5755 32.4501 54.7505 32.4501H59.9755C60.1505 32.425 60.3001 32.2751 60.3001 32.1001Z" fill="white"/>
<path d="M57.1752 34.6C57.2 34.4 57.3502 34.2501 57.5502 34.2501L59.8754 34.425C60.0751 34.4501 60.225 34.625 60.2 34.825C60.1752 35.025 60.025 35.175 59.825 35.175L57.5001 35C57.3252 34.975 57.1752 34.8 57.1752 34.6Z" fill="#F3F3F3"/>
<path d="M57.1502 34.6C57.1752 34.375 57.3502 34.225 57.5502 34.225L59.8754 34.4C60.0751 34.425 60.2501 34.6 60.225 34.825C60.2003 35.0501 60.025 35.2 59.825 35.2L57.5001 35.025C57.3001 35 57.1502 34.8 57.1502 34.6ZM60.2003 34.825C60.225 34.6501 60.0751 34.4751 59.9001 34.4751L57.575 34.3001C57.4003 34.3001 57.2501 34.425 57.225 34.6253C57.2003 34.8 57.3502 34.975 57.5252 34.975L59.8503 35.1499C60.025 35.1499 60.1752 35.0003 60.2003 34.825Z" fill="white"/>
<path d="M53.9502 36.425C54.0003 36.225 54.1752 36.0999 54.3752 36.1252L59.5001 37.1502C59.7001 37.2 59.8253 37.375 59.7752 37.575C59.7252 37.775 59.5502 37.9001 59.3502 37.8751L54.225 36.8501C54.0501 36.825 53.9252 36.625 53.9502 36.425Z" fill="#F3F3F3"/>
<path d="M53.9252 36.425C53.9752 36.2 54.1752 36.0751 54.3752 36.0999L59.5001 37.1252C59.7001 37.175 59.8501 37.375 59.8 37.6C59.7502 37.825 59.5502 37.9502 59.3502 37.9252L54.225 36.9001C54.025 36.8501 53.9001 36.6501 53.9252 36.4253V36.425ZM59.7502 37.6C59.7752 37.425 59.6754 37.2501 59.5001 37.2L54.375 36.175C54.2003 36.1502 54.025 36.2501 53.975 36.4501C53.9502 36.625 54.0501 36.8 54.2253 36.8501L59.3502 37.8751C59.5502 37.9001 59.7001 37.775 59.7502 37.6Z" fill="white"/>
<path d="M56.2003 39.425C56.2117 39.3774 56.2325 39.3326 56.2613 39.293C56.2901 39.2534 56.3265 39.2199 56.3682 39.1944C56.41 39.1689 56.4564 39.1519 56.5047 39.1443C56.5531 39.1367 56.6025 39.1387 56.6501 39.1502L58.9001 39.775C59.1001 39.825 59.2 40.0253 59.1502 40.225C59.1387 40.2727 59.118 40.3176 59.0892 40.3572C59.0604 40.3968 59.024 40.4304 58.9822 40.4559C58.9404 40.4815 58.894 40.4985 58.8456 40.5061C58.7972 40.5137 58.7477 40.5117 58.7001 40.5001L56.4501 39.8751C56.2501 39.825 56.1505 39.625 56.2003 39.425Z" fill="#F3F3F3"/>
<path d="M56.175 39.425C56.225 39.225 56.4501 39.0751 56.6501 39.1502L58.9001 39.775C59.1001 39.825 59.2253 40.0501 59.1752 40.2501C59.1252 40.4501 58.9001 40.6 58.7001 40.5252L56.4501 39.9001C56.2501 39.8501 56.1249 39.6501 56.1752 39.4253L56.175 39.425ZM59.1001 40.2501C59.1502 40.0751 59.0501 39.8751 58.8751 39.825L56.625 39.2C56.4501 39.1499 56.2751 39.2501 56.225 39.4501C56.1752 39.625 56.2751 39.825 56.4501 39.8751L58.7001 40.5001C58.8751 40.5252 59.0501 40.4253 59.1001 40.2501Z" fill="white"/>
<path d="M52.6751 40.625C52.7499 40.425 52.9752 40.3499 53.1499 40.425L57.9752 42.425C58.1502 42.4999 58.2501 42.7252 58.1752 42.8999C58.1001 43.1001 57.8751 43.175 57.7001 43.1001L52.8751 41.1001C52.6751 41.0253 52.6 40.7997 52.6751 40.625Z" fill="#F3F3F3"/>
<path d="M52.6501 40.6C52.6867 40.5039 52.7599 40.4263 52.8536 40.3841C52.9474 40.3419 53.054 40.3386 53.1502 40.375L57.9752 42.375C58.1752 42.4501 58.2501 42.6751 58.1752 42.9001C58.1386 42.9962 58.0654 43.0738 57.9717 43.116C57.8779 43.1582 57.7713 43.1615 57.6751 43.1252L52.8501 41.1252C52.6501 41.025 52.5752 40.8 52.6501 40.6ZM58.1252 42.8751C58.2 42.7001 58.1252 42.5001 57.9502 42.425L53.1252 40.425C52.9502 40.3502 52.7752 40.4501 52.7001 40.625C52.6253 40.8 52.7001 41 52.8751 41.0751L57.7001 43.0751C57.8751 43.1252 58.0751 43.0501 58.1252 42.8751Z" fill="white"/>
<path d="M54.3001 44C54.4003 43.825 54.6 43.7499 54.775 43.825L56.8501 44.8751C57.025 44.9499 57.1001 45.175 57.0003 45.375C56.9001 45.5499 56.7001 45.6253 56.5252 45.5499L54.4503 44.5001C54.2751 44.4 54.2 44.175 54.3001 44Z" fill="#F3F3F3"/>
<path d="M54.2751 43.975C54.3752 43.775 54.6003 43.7001 54.8003 43.8L56.8751 44.8501C57.0751 44.9502 57.1502 45.1752 57.0501 45.375C56.9502 45.575 56.7249 45.6501 56.5252 45.5499L54.4503 44.5001C54.2501 44.4253 54.1752 44.175 54.2751 43.975ZM56.9752 45.3499C57.0501 45.175 57 44.975 56.825 44.9001L54.7502 43.8501C54.6 43.7752 54.4003 43.8501 54.3001 44C54.2253 44.175 54.2751 44.375 54.4501 44.4501L56.5249 45.5001C56.7001 45.575 56.9001 45.5252 56.9752 45.3499Z" fill="white"/>
<path d="M50.625 44.4751C50.7502 44.3001 50.9502 44.2501 51.1252 44.375L55.4751 47.2751C55.6501 47.375 55.6751 47.6003 55.5752 47.775C55.4501 47.9502 55.2501 48 55.0751 47.8751L50.7252 44.975C50.5502 44.8501 50.5001 44.625 50.625 44.4751Z" fill="#F3F3F3"/>
<path d="M50.6 44.4501C50.7252 44.2751 50.9752 44.225 51.1502 44.3252L55.5001 47.225C55.6751 47.3499 55.7252 47.575 55.6 47.775C55.4751 47.9502 55.225 48 55.0503 47.9001L50.7001 45C50.5001 44.8751 50.4751 44.625 50.6 44.4501ZM55.5252 47.7499C55.625 47.6003 55.6 47.375 55.4503 47.2751L51.1001 44.375C50.9502 44.2751 50.7502 44.3252 50.6501 44.4751C50.5502 44.625 50.5752 44.8501 50.7249 44.9499L55.0751 47.8501C55.225 47.9502 55.425 47.9001 55.5252 47.7502V47.7499Z" fill="white"/>
<path d="M51.5502 48.1001C51.6751 47.9499 51.9001 47.9001 52.0501 48.0253L53.8751 49.4501C54.025 49.575 54.0501 49.8 53.9252 49.9502C53.8003 50.0999 53.5752 50.1502 53.425 50.025L51.6 48.6C51.4503 48.4751 51.425 48.2501 51.5502 48.1001Z" fill="#F3F3F3"/>
<path d="M51.5252 48.0751C51.6501 47.9001 51.9001 47.8751 52.0751 48.0003L53.9001 49.425C54.0751 49.5499 54.1001 49.8 53.975 49.975C53.8501 50.1502 53.6 50.175 53.4253 50.0501L51.6 48.625C51.425 48.5001 51.4003 48.2501 51.5252 48.0751ZM53.9252 49.9502C54.0501 49.8 54.025 49.6 53.8751 49.4751L52.0501 48.0501C51.9001 47.9502 51.7001 47.9752 51.5752 48.1249C51.4501 48.2751 51.4751 48.4751 51.625 48.6L53.4501 50.025C53.6 50.1252 53.8 50.0999 53.9249 49.9502L53.9252 49.9502Z" fill="white"/>
<path d="M47.825 47.8501C47.9752 47.7001 48.2003 47.7001 48.3252 47.8501L52.025 51.5249C52.1752 51.6751 52.1502 51.9001 52.025 52.025C51.8754 52.175 51.6501 52.175 51.5252 52.025L47.825 48.3502C47.7001 48.225 47.7001 47.975 47.825 47.8501Z" fill="#F3F3F3"/>
<path d="M47.825 47.825C47.8984 47.7528 47.9972 47.7124 48.1001 47.7124C48.2031 47.7124 48.3019 47.7528 48.3752 47.825L52.0751 51.4999C52.1473 51.5732 52.1877 51.672 52.1877 51.775C52.1877 51.8779 52.1473 51.9767 52.0751 52.0501C52.0017 52.1222 51.903 52.1626 51.8001 52.1626C51.6973 52.1626 51.5985 52.1222 51.5252 52.0501L47.825 48.3752C47.6501 48.225 47.6501 47.9752 47.825 47.825ZM52.025 52C52.1502 51.8751 52.1502 51.6501 52.025 51.5252L48.3252 47.8501C48.2003 47.7252 47.9752 47.7252 47.8503 47.8501C47.7252 47.975 47.7252 48.2 47.8503 48.3249L51.5502 52C51.6751 52.1502 51.8754 52.1502 52.025 52Z" fill="white"/>
<path d="M48.0501 51.575C48.2003 51.4501 48.425 51.4501 48.5502 51.6L50.0754 53.3499C50.2 53.5001 50.1752 53.7252 50.025 53.8501C49.8754 53.975 49.6501 53.975 49.5252 53.825L48 52.0751C47.8751 51.9502 47.9001 51.7252 48.0501 51.575Z" fill="#F3F3F3"/>
<path d="M48.0253 51.575C48.2003 51.4253 48.4253 51.4501 48.575 51.6L50.1001 53.3499C50.2501 53.5001 50.225 53.7499 50.0501 53.9001C49.8751 54.0501 49.6501 54.025 49.5001 53.8751L47.975 52.1252C47.8501 51.9502 47.8501 51.7001 48.025 51.575H48.0253ZM50.0253 53.8501C50.175 53.7252 50.175 53.5249 50.0751 53.3752L48.5499 51.625C48.425 51.5001 48.225 51.4751 48.0751 51.6C47.9252 51.7252 47.9252 51.9252 48.025 52.0748L49.5502 53.825C49.6751 53.975 49.8754 53.975 50.025 53.8501H50.0253Z" fill="white"/>
<path d="M44.4501 50.625C44.625 50.5001 44.8501 50.5502 44.9502 50.7252L47.8498 55.0501C47.9499 55.225 47.8999 55.4501 47.7499 55.5502C47.575 55.6751 47.3499 55.625 47.2498 55.4501L44.3499 51.1249C44.2498 50.9502 44.2999 50.7249 44.4498 50.625H44.4501Z" fill="#F3F3F3"/>
<path d="M44.4501 50.6C44.625 50.4751 44.8751 50.5252 45 50.7001L47.9001 55.0253C48.025 55.2 47.975 55.4501 47.7752 55.575C47.6 55.7001 47.3502 55.6501 47.225 55.4751L44.3252 51.1499C44.2003 50.9502 44.2503 50.7249 44.4501 50.6ZM47.7502 55.5252C47.9001 55.425 47.9502 55.225 47.8501 55.0751L44.9502 50.7499C44.8501 50.6003 44.6501 50.575 44.4754 50.6751C44.3252 50.775 44.2751 50.975 44.3752 51.1252L47.2751 55.4501C47.3752 55.575 47.6003 55.625 47.7499 55.5249L47.7502 55.5252Z" fill="white"/>
<path d="M43.9252 54.3249C44.1001 54.225 44.3252 54.2751 44.425 54.4501L45.5752 56.4751C45.6751 56.6501 45.6 56.8751 45.425 56.975C45.2501 57.0751 45.025 57.025 44.9252 56.8501L43.7752 54.825C43.7001 54.6501 43.7502 54.425 43.9249 54.3252L43.9252 54.3249Z" fill="#F3F3F3"/>
<path d="M43.9252 54.3001C44.1252 54.2 44.3502 54.2501 44.4501 54.425L45.6 56.4501C45.7001 56.625 45.6501 56.8751 45.4503 56.975C45.2501 57.0751 45.025 57.025 44.9252 56.8501L43.7752 54.825C43.6751 54.6501 43.7252 54.425 43.9249 54.3001H43.9252ZM45.425 56.9502C45.5752 56.8501 45.6501 56.6501 45.5502 56.5001L44.4003 54.4751C44.3001 54.3252 44.1001 54.2751 43.9502 54.3499C43.8 54.4501 43.7252 54.6501 43.825 54.8L44.9752 56.825C45.0501 56.975 45.2751 57.0503 45.425 56.9502Z" fill="white"/>
<path d="M40.6 52.6751C40.8 52.6003 41 52.6751 41.0751 52.8501L43.1001 57.6751C43.175 57.8501 43.0751 58.0751 42.9001 58.1499C42.7252 58.225 42.5001 58.1499 42.4253 57.975L40.4003 53.1502C40.3252 52.975 40.425 52.7502 40.6 52.6751Z" fill="#F3F3F3"/>
<path d="M40.6 52.6501C40.8 52.5752 41.025 52.6501 41.1252 52.8501L43.1502 57.6751C43.1864 57.7712 43.1831 57.8778 43.1409 57.9715C43.0987 58.0652 43.0212 58.1384 42.9252 58.175C42.7252 58.2501 42.5001 58.175 42.4003 57.975L40.3752 53.1502C40.3001 52.975 40.4003 52.7502 40.6 52.6501ZM42.8751 58.1252C43.0501 58.0501 43.1252 57.8501 43.0501 57.7001L41.025 52.8751C40.9502 52.7001 40.7502 52.625 40.5752 52.7001C40.4003 52.775 40.3249 52.975 40.4003 53.1252L42.425 57.9502C42.5252 58.1252 42.7001 58.2 42.8751 58.1252Z" fill="white"/>
<path d="M39.375 56.225C39.5752 56.1502 39.775 56.2501 39.8501 56.4501L40.5752 58.6501C40.6501 58.825 40.5252 59.0501 40.3502 59.1001C40.1502 59.175 39.9502 59.0751 39.8754 58.8751L39.1502 56.6751C39.0754 56.5001 39.1752 56.3001 39.3752 56.225H39.375Z" fill="#F3F3F3"/>
<path d="M39.3502 56.2C39.4463 56.1638 39.5529 56.1671 39.6466 56.2093C39.7403 56.2515 39.8135 56.329 39.8501 56.425L40.5752 58.625C40.6501 58.825 40.5252 59.0501 40.3249 59.1252C40.2288 59.1614 40.1222 59.1581 40.0285 59.1159C39.9348 59.0737 39.8616 58.9961 39.825 58.9001L39.1001 56.7001C39.0501 56.5001 39.1502 56.2751 39.3502 56.2ZM40.3252 59.0748C40.5001 59.025 40.6 58.825 40.5502 58.6501L39.825 56.4501C39.7752 56.2751 39.5752 56.2 39.4003 56.2501C39.225 56.3001 39.1252 56.5001 39.1752 56.6751L39.9001 58.8751C39.9129 58.9175 39.9344 58.9568 39.9633 58.9904C39.9923 59.0239 40.0279 59.051 40.068 59.0699C40.1081 59.0888 40.1517 59.099 40.196 59.0999C40.2403 59.1008 40.2843 59.0923 40.3252 59.0751V59.0748Z" fill="white"/>
<path d="M36.4253 53.9502C36.625 53.9001 36.8253 54.025 36.8501 54.225L37.9001 59.3502C37.9502 59.5499 37.8 59.7252 37.6 59.775C37.4003 59.825 37.2 59.7001 37.1752 59.5001L36.1249 54.375C36.1001 54.2 36.225 54 36.425 53.9499L36.4253 53.9502Z" fill="#F3F3F3"/>
<path d="M36.4253 53.9249C36.6501 53.8751 36.8501 54.025 36.9001 54.225L37.9502 59.3502C38.0003 59.5499 37.8501 59.775 37.6501 59.8C37.425 59.8501 37.225 59.7001 37.1752 59.5001L36.1249 54.375C36.0751 54.175 36.2003 53.975 36.425 53.9252L36.4253 53.9249ZM37.6 59.7499C37.7752 59.7252 37.9001 59.5499 37.8751 59.3499L36.825 54.225C36.8003 54.0501 36.6003 53.9252 36.425 53.975C36.2501 54 36.1252 54.175 36.1502 54.375L37.2003 59.5001C37.2501 59.6751 37.425 59.775 37.6003 59.7502L37.6 59.7499Z" fill="white"/>
<path d="M34.5252 57.2C34.7252 57.175 34.9001 57.3001 34.9502 57.5001L35.2501 59.8C35.2751 60 35.1252 60.175 34.9249 60.2C34.7252 60.225 34.5502 60.1001 34.5001 59.9001L34.2003 57.6C34.1752 57.4 34.3252 57.225 34.5252 57.2Z" fill="#F3F3F3"/>
<path d="M34.5252 57.175C34.7502 57.1502 34.9502 57.3001 34.9752 57.5001L35.2751 59.8C35.3001 60 35.1502 60.2 34.9252 60.225C34.7001 60.2501 34.5001 60.1001 34.4751 59.8999L34.1752 57.6C34.1502 57.4 34.3001 57.2 34.5252 57.175ZM34.9001 60.175C35.0751 60.1502 35.2253 59.975 35.2003 59.8L34.9001 57.5001C34.8751 57.3252 34.7001 57.2 34.5252 57.225C34.3502 57.2501 34.2 57.425 34.225 57.6L34.5252 59.9001C34.5502 60.0751 34.7252 60.2 34.9001 60.175Z" fill="white"/>
<path d="M31.9502 54.4C32.1502 54.4 32.3252 54.5502 32.3252 54.7502V59.975C32.3252 60.175 32.1502 60.3252 31.9502 60.3252C31.7502 60.3252 31.5752 60.175 31.5752 59.975V54.7502C31.6003 54.5502 31.7502 54.4 31.9502 54.4Z" fill="#F3F3F3"/>
<path d="M31.9502 54.375C32.1752 54.375 32.3502 54.5499 32.3502 54.7499V59.975C32.3502 60.175 32.1752 60.3499 31.9502 60.3499C31.7252 60.3499 31.5502 60.175 31.5502 59.975V54.7502C31.5502 54.5502 31.7502 54.375 31.9502 54.375ZM31.9502 60.3001C32.1252 60.3001 32.3001 60.1502 32.3001 59.975V54.7502C32.3001 54.575 32.1502 54.425 31.9502 54.425C31.7752 54.425 31.6003 54.575 31.6003 54.7502V59.975C31.625 60.1502 31.7752 60.3001 31.9502 60.3001Z" fill="white"/>
<path d="M29.4501 57.2C29.6501 57.225 29.8 57.375 29.8 57.575L29.625 59.9001C29.6003 60.1001 29.425 60.2501 29.225 60.2253C29.025 60.2 28.8751 60.0501 28.8751 59.8501L29.0501 57.5249C29.0751 57.3252 29.2501 57.175 29.4501 57.2Z" fill="#F3F3F3"/>
<path d="M29.4501 57.175C29.6751 57.2 29.825 57.375 29.825 57.575L29.6501 59.9001C29.625 60.1001 29.4501 60.2751 29.225 60.2501C29.0003 60.225 28.8501 60.0501 28.8501 59.8501L29.025 57.5249C29.0501 57.3001 29.225 57.1502 29.4501 57.175ZM29.225 60.2C29.4 60.2 29.5752 60.0751 29.5752 59.9001L29.7502 57.575C29.7502 57.4 29.625 57.2501 29.425 57.225C29.2501 57.225 29.0751 57.3499 29.0751 57.5252L28.9001 59.8501C28.9001 60.025 29.0498 60.1752 29.225 60.2Z" fill="white"/>
<path d="M27.5752 53.9502C27.7752 54 27.9001 54.175 27.8751 54.375L26.8501 59.5001C26.8 59.7001 26.625 59.8253 26.425 59.775C26.225 59.7252 26.1001 59.5502 26.1252 59.3499L27.1502 54.225C27.1752 54.0501 27.3752 53.9252 27.5752 53.9502Z" fill="#F3F3F3"/>
<path d="M27.5752 53.9249C27.8 53.975 27.9252 54.1752 27.9001 54.375L26.8751 59.5001C26.825 59.7001 26.625 59.8501 26.4003 59.8C26.1752 59.7499 26.0501 59.5499 26.0751 59.3499L27.1001 54.225C27.1502 54.025 27.3502 53.8999 27.575 53.9252L27.5752 53.9249ZM26.4003 59.7499C26.5752 59.775 26.7502 59.6751 26.8003 59.5001L27.825 54.375C27.8501 54.2 27.7502 54.025 27.5502 53.975C27.3752 53.9502 27.2003 54.0501 27.1502 54.2253L26.1252 59.3499C26.1001 59.5499 26.225 59.7001 26.4003 59.7499Z" fill="white"/>
<path d="M24.575 56.2C24.7752 56.2501 24.9001 56.4501 24.8501 56.6501L24.225 58.9001C24.1752 59.1001 23.9752 59.2 23.7752 59.1502C23.7276 59.1387 23.6827 59.118 23.6431 59.0892C23.6034 59.0604 23.5699 59.024 23.5443 58.9822C23.5188 58.9404 23.5017 58.894 23.4942 58.8456C23.4866 58.7972 23.4886 58.7477 23.5001 58.7001L24.1252 56.4501C24.1752 56.2501 24.375 56.1502 24.575 56.2Z" fill="#F3F3F3"/>
<path d="M24.575 56.1752C24.7752 56.225 24.9252 56.4501 24.8501 56.6501L24.225 58.9001C24.1752 59.1001 23.9502 59.2253 23.7502 59.175C23.5502 59.1252 23.4003 58.9001 23.4751 58.7001L24.1001 56.4501C24.1502 56.2501 24.3502 56.1249 24.575 56.175V56.1752ZM23.7502 59.1001C23.9252 59.1502 24.1252 59.0501 24.1752 58.8751L24.8 56.625C24.8501 56.4501 24.7502 56.2751 24.5502 56.225C24.3752 56.175 24.1752 56.2751 24.1252 56.4501L23.5001 58.7001C23.4751 58.8751 23.575 59.0501 23.7502 59.1001Z" fill="white"/>
<path d="M23.3502 52.6751C23.5502 52.7499 23.625 52.975 23.5502 53.1499L21.5502 57.975C21.4754 58.1502 21.2501 58.2501 21.0754 58.1502C20.9001 58.0501 20.8 57.8501 20.8751 57.6751L22.8751 52.8501C22.9499 52.6751 23.1755 52.575 23.3502 52.6751Z" fill="#F3F3F3"/>
<path d="M23.3502 52.6501C23.4463 52.6867 23.5239 52.7599 23.5661 52.8536C23.6082 52.9474 23.6115 53.054 23.5752 53.1502L21.5752 57.975C21.5001 58.175 21.2751 58.2501 21.0501 58.175C20.9541 58.1384 20.8765 58.0652 20.8343 57.9715C20.7921 57.8778 20.7888 57.7712 20.825 57.6751L22.825 52.8501C22.9252 52.6501 23.1502 52.5502 23.3502 52.6501ZM21.0751 58.1252C21.2501 58.2 21.4501 58.1252 21.5252 57.9502L23.5252 53.1252C23.6 52.9502 23.5001 52.775 23.3252 52.7001C23.1502 52.6253 22.9502 52.7001 22.8751 52.8751L20.8751 57.7001C20.825 57.8501 20.9001 58.0501 21.0751 58.1252Z" fill="white"/>
<path d="M19.9752 54.2751C20.1502 54.375 20.225 54.575 20.1502 54.7499L19.1001 56.825C19 57 18.8 57.0751 18.6 56.975C18.425 56.8751 18.3502 56.6751 18.425 56.5001L19.4754 54.4253C19.5752 54.2501 19.7752 54.175 19.9752 54.2751Z" fill="#F3F3F3"/>
<path d="M19.9752 54.2501C20.1752 54.3499 20.2501 54.5752 20.1502 54.775L19.1001 56.8501C19 57.0501 18.775 57.1252 18.5752 57.025C18.3752 56.9252 18.3001 56.6999 18.4003 56.5001L19.4501 54.4253C19.5502 54.225 19.7752 54.1502 19.9752 54.2501ZM18.6003 56.9752C18.7752 57.0501 18.9752 57 19.0501 56.825L20.1001 54.7502C20.175 54.6 20.1001 54.4 19.9502 54.3001C19.7752 54.2253 19.5752 54.2751 19.5001 54.4501L18.4501 56.5249C18.3752 56.6751 18.4501 56.8754 18.6003 56.9752Z" fill="white"/>
<path d="M19.4751 50.5752C19.6501 50.7001 19.7001 50.9252 19.5752 51.0751L16.6751 55.4003C16.5752 55.575 16.3499 55.6 16.1752 55.5001C16.0003 55.375 15.9502 55.1502 16.0751 55L18.9752 50.6748C19.0751 50.5001 19.3001 50.4503 19.4751 50.5752Z" fill="#F3F3F3"/>
<path d="M19.4751 50.5499C19.6501 50.6751 19.7001 50.9252 19.6 51.1001L16.7001 55.4253C16.5752 55.6 16.3502 55.6501 16.1502 55.5252C15.9752 55.4 15.9252 55.1502 16.025 54.975L18.9252 50.6501C19.0501 50.4751 19.3001 50.425 19.4751 50.5499ZM16.1752 55.4751C16.3249 55.575 16.5502 55.5499 16.6501 55.4003L19.5502 51.0751C19.6501 50.9252 19.6003 50.7252 19.4501 50.625C19.3001 50.5252 19.0751 50.5502 18.9752 50.6999L16.0751 55C15.9752 55.1502 16.025 55.3752 16.1752 55.4751Z" fill="white"/>
<path d="M15.825 51.5001C15.9752 51.625 16.025 51.8501 15.9001 52L14.4501 53.825C14.3252 53.975 14.1001 54 13.9502 53.8751C13.8003 53.7502 13.7502 53.5252 13.8754 53.375L15.3252 51.5499C15.4501 51.4003 15.6751 51.375 15.825 51.5001Z" fill="#F3F3F3"/>
<path d="M15.8501 51.4751C16.025 51.6 16.0501 51.8501 15.9249 52.025L14.4751 53.8501C14.3502 54.025 14.1001 54.0501 13.9252 53.9001C13.7502 53.775 13.7252 53.5252 13.8503 53.3499L15.3001 51.5252C15.425 51.3499 15.6751 51.3252 15.8501 51.4751ZM13.9752 53.8501C14.1249 53.975 14.3252 53.9502 14.4501 53.8L15.9001 51.975C16.0003 51.8253 15.975 51.625 15.8253 51.5001C15.6751 51.375 15.4751 51.4 15.3502 51.5502L13.9001 53.375C13.8003 53.5252 13.8255 53.7499 13.9752 53.8501Z" fill="white"/>
<path d="M16.0751 47.7502C16.225 47.8999 16.225 48.1252 16.0751 48.2501L12.3752 51.9249C12.225 52.0751 12.0003 52.0501 11.8751 51.9249C11.7502 51.8 11.7252 51.5499 11.8751 51.425L15.5499 47.7502C15.7001 47.6 15.9252 47.6 16.0751 47.7502Z" fill="#F3F3F3"/>
<path d="M16.1001 47.7252C16.1722 47.7985 16.2125 47.8972 16.2125 48C16.2125 48.1028 16.1722 48.2015 16.1001 48.2748L12.4 51.9502C12.3267 52.0222 12.228 52.0626 12.1252 52.0626C12.0224 52.0626 11.9237 52.0222 11.8503 51.9502C11.7781 51.8768 11.7377 51.778 11.7377 51.6751C11.7377 51.5722 11.7781 51.4734 11.8503 51.4L15.5502 47.7252C15.6236 47.6531 15.7223 47.6127 15.8252 47.6127C15.928 47.6127 16.0268 47.6531 16.1001 47.7252ZM11.8751 51.9249C12 52.0498 12.225 52.0498 12.3499 51.9249L16.0501 48.2498C16.1752 48.1249 16.1752 47.8999 16.0501 47.775C15.9252 47.6498 15.7001 47.6498 15.5752 47.775L11.8751 51.4498C11.7502 51.5747 11.7502 51.775 11.8751 51.9246L11.8751 51.9249Z" fill="white"/>
<path d="M12.3252 47.9502C12.4501 48.0999 12.4501 48.3252 12.3001 48.4501L10.5252 49.9502C10.3752 50.0751 10.1502 50.0501 10.025 49.9001C9.90013 49.7499 9.90013 49.5252 10.0501 49.4L11.825 47.9001C11.9752 47.775 12.2 47.8 12.3252 47.9502Z" fill="#F3F3F3"/>
<path d="M12.3502 47.9249C12.5001 48.1001 12.4751 48.3499 12.3252 48.4751L10.5502 49.975C10.4003 50.1252 10.1502 50.1001 10.0003 49.9252C9.85006 49.7499 9.8751 49.5001 10.025 49.375L11.8003 47.8751C11.9499 47.7252 12.2003 47.7502 12.3499 47.9252L12.3502 47.9249ZM10.0501 49.9001C10.1752 50.0501 10.3752 50.0501 10.5249 49.9502L12.3001 48.4501C12.425 48.3252 12.4501 48.1249 12.3252 47.9752C12.2 47.825 12 47.825 11.8503 47.9252L10.0751 49.425C9.92516 49.5499 9.92516 49.7505 10.0501 49.9001Z" fill="white"/>
<path d="M13.3252 44.3499C13.4501 44.5252 13.4 44.7499 13.225 44.8501L8.8751 47.7502C8.70013 47.8501 8.4751 47.8 8.37523 47.6501C8.25006 47.4751 8.30013 47.2501 8.4751 47.1499L12.8253 44.2501C12.9755 44.1502 13.2003 44.2 13.3254 44.3499H13.3252Z" fill="#F3F3F3"/>
<path d="M13.3502 44.3499C13.4751 44.5252 13.425 44.775 13.2501 44.9001L8.90013 47.8C8.72516 47.9252 8.4751 47.8748 8.35019 47.6751C8.22503 47.5001 8.27536 47.2501 8.45006 47.1252L12.8003 44.225C12.9752 44.1001 13.2253 44.1502 13.3502 44.3499ZM8.40026 47.625C8.50013 47.775 8.70013 47.825 8.85006 47.7252L13.2 44.825C13.3502 44.7252 13.4 44.5252 13.2751 44.3502C13.1752 44.2 12.9752 44.1502 12.825 44.2501L8.4751 47.1502C8.32516 47.2751 8.30013 47.4751 8.40026 47.625Z" fill="white"/>
<path d="M9.6 43.825C9.70013 44 9.65006 44.225 9.4751 44.3252L7.45006 45.4751C7.2751 45.575 7.05006 45.5001 6.95019 45.3252C6.85006 45.1502 6.90013 44.9252 7.0751 44.825L9.10013 43.6751C9.2751 43.575 9.50013 43.6501 9.60026 43.825H9.6Z" fill="#F3F3F3"/>
<path d="M9.62529 43.8C9.72516 44 9.6751 44.225 9.50013 44.3252L7.4751 45.4751C7.30013 45.575 7.05006 45.5001 6.95019 45.3252C6.85006 45.1252 6.90013 44.9001 7.0751 44.8L9.10013 43.6501C9.2751 43.5499 9.52516 43.625 9.62503 43.8H9.62529ZM6.97497 45.3001C7.0751 45.4751 7.2751 45.5252 7.42503 45.425L9.45006 44.2751C9.6 44.175 9.65006 43.975 9.57523 43.825C9.4751 43.6501 9.2751 43.6 9.12516 43.7001L7.10013 44.8501C6.95019 44.9249 6.89987 45.1252 6.97497 45.3001Z" fill="white"/>
<path d="M11.2751 40.5001C11.3499 40.7001 11.2751 40.9001 11.0751 40.975L6.25006 42.975C6.0751 43.0501 5.85006 42.9502 5.77523 42.775C5.70013 42.575 5.77523 42.375 5.97523 42.3001L10.8003 40.3001C10.9752 40.2253 11.2003 40.3001 11.2751 40.5001Z" fill="#F3F3F3"/>
<path d="M11.3001 40.4751C11.375 40.6751 11.3001 40.9001 11.1001 41L6.2751 43C6.17896 43.0362 6.07237 43.0329 5.97868 42.9907C5.885 42.9486 5.81184 42.871 5.77523 42.775C5.70013 42.575 5.77523 42.3499 5.97523 42.2501L10.8003 40.2501C10.8964 40.2138 11.003 40.2172 11.0967 40.2593C11.1904 40.3015 11.2635 40.3791 11.3001 40.4751ZM5.82503 42.7499C5.90013 42.9252 6.10013 43.0003 6.25006 42.9499L11.0751 40.9499C11.2501 40.8751 11.3252 40.6751 11.2501 40.5001C11.1752 40.3252 10.9752 40.2501 10.825 40.3001L6 42.3001C5.82503 42.375 5.75019 42.575 5.82503 42.7502V42.7499Z" fill="white"/>
<path d="M7.75019 39.2501C7.82503 39.4501 7.72516 39.6501 7.52516 39.7249L5.32516 40.4501C5.15019 40.5249 4.92516 40.4 4.8751 40.225C4.80026 40.025 4.90013 39.825 5.10013 39.7502L7.30013 39.025C7.4751 38.9502 7.6751 39.0501 7.75019 39.2501Z" fill="#F3F3F3"/>
<path d="M7.77497 39.225C7.85006 39.425 7.75019 39.6501 7.52516 39.7252L5.32516 40.4501C5.12516 40.5249 4.90013 40.4 4.82503 40.2C4.75019 40 4.85006 39.775 5.07536 39.7001L7.2751 38.975C7.4751 38.9252 7.70013 39.025 7.77523 39.2253L7.77497 39.225ZM4.87535 40.1752C4.92542 40.3502 5.12542 40.4503 5.30039 40.4003L7.50039 39.6751C7.67535 39.6253 7.75045 39.4253 7.70039 39.2503C7.65032 39.0754 7.45032 38.9752 7.27535 39.0253L5.07536 39.7505C4.90039 39.8253 4.82529 40.0003 4.87535 40.1752Z" fill="white"/>
<path d="M10.0003 36.2751C10.0501 36.4751 9.92516 36.6751 9.72516 36.7001L4.6 37.7001C4.4 37.7502 4.22503 37.6 4.17523 37.4C4.12516 37.2 4.25006 37 4.45006 36.975L9.57523 35.975C9.77523 35.9502 9.97548 36.0751 10.0003 36.2751Z" fill="#F3F3F3"/>
<path d="M10.0501 36.2751C10.1001 36.5001 9.95019 36.7001 9.75019 36.7499L4.62503 37.7499C4.42503 37.8 4.22503 37.6501 4.17523 37.425C4.12516 37.2 4.2751 37 4.4751 36.9502L9.60026 35.9502C9.8 35.9001 10.0003 36.0501 10.0501 36.2751ZM4.22503 37.4003C4.25006 37.575 4.42503 37.7001 4.6 37.6751L9.72516 36.6751C9.90013 36.6501 10.025 36.4501 9.97523 36.2751C9.95019 36.1001 9.77523 35.975 9.6 36L4.4751 37C4.30013 37.0501 4.17523 37.225 4.22503 37.4V37.4003Z" fill="white"/>
<path d="M6.80026 34.3502C6.82503 34.5499 6.70013 34.7252 6.50013 34.7502L4.20026 35.025C4 35.0501 3.82503 34.9001 3.80026 34.6999C3.77523 34.5001 3.90013 34.3252 4.10013 34.2999L6.40026 34.025C6.57523 34 6.77523 34.1499 6.80026 34.3502Z" fill="#F3F3F3"/>
<path d="M6.82529 34.3502C6.85006 34.575 6.70013 34.775 6.50013 34.8L4.20026 35.0751C4 35.1001 3.80026 34.9502 3.77523 34.7252C3.75019 34.5001 3.90013 34.3001 4.10013 34.2751L6.40026 34C6.6 33.975 6.80026 34.1252 6.82503 34.3499L6.82529 34.3502ZM3.8 34.7001C3.82503 34.8751 4.00026 35.0253 4.17523 35L6.4751 34.7252C6.65006 34.7001 6.77523 34.5252 6.75019 34.3502C6.72516 34.175 6.55019 34.025 6.37523 34.0501L4.0751 34.3252C3.90013 34.3502 3.77523 34.5252 3.8 34.7001Z" fill="white"/>
<path d="M9.6 31.9249C9.6 32.1252 9.45032 32.3001 9.25007 32.3001H4.02529C3.82529 32.3001 3.67535 32.1252 3.67535 31.9252C3.67535 31.7252 3.82529 31.5499 4.02529 31.5499H9.25032C9.45032 31.5499 9.60052 31.7252 9.60052 31.9252L9.6 31.9249Z" fill="#F3F3F3"/>
<path d="M9.62529 31.9249C9.62529 32.1502 9.45007 32.3249 9.25007 32.3249H4.02529C3.82529 32.3249 3.65032 32.1499 3.65032 31.9249C3.65032 31.7001 3.82529 31.5249 4.02529 31.5249H9.25032C9.45032 31.5249 9.62529 31.7001 9.62529 31.9249ZM3.70013 31.9001C3.70013 32.0751 3.85006 32.2501 4.02529 32.2501H9.25007C9.42503 32.2501 9.57523 32.1001 9.57523 31.9001C9.57523 31.7252 9.42503 31.5499 9.25007 31.5499H4.02529C3.85032 31.575 3.70013 31.7252 3.70013 31.9001Z" fill="white"/>
<path d="M6.82529 29.4C6.8 29.6 6.65006 29.7499 6.45006 29.7499L4.1249 29.575C3.92516 29.5499 3.77523 29.375 3.8 29.175C3.82503 28.975 3.97523 28.825 4.17523 28.825L6.50013 29C6.6751 29.025 6.82529 29.2 6.82529 29.4Z" fill="#E2E2E2"/>
<path d="M6.85006 29.4C6.82503 29.625 6.65006 29.775 6.45006 29.775L4.1249 29.6C3.92516 29.575 3.75019 29.4 3.77523 29.175C3.8 28.9502 3.97523 28.8 4.17523 28.8L6.50013 28.975C6.70013 29 6.85006 29.2 6.85006 29.4ZM3.8 29.175C3.77523 29.3499 3.92516 29.5252 4.10013 29.5252L6.42529 29.7001C6.6 29.7001 6.75019 29.575 6.77523 29.375C6.80026 29.2 6.65006 29.025 6.4751 29.025L4.14994 28.8501C3.97523 28.8501 3.82503 28.9997 3.8 29.175Z" fill="white"/>
<path d="M10.0501 27.575C10 27.775 9.82503 27.9001 9.62503 27.8751L4.50013 26.825C4.30013 26.775 4.17497 26.6 4.22503 26.4C4.2751 26.2 4.45006 26.0748 4.65006 26.1001L9.77523 27.1252C9.95019 27.175 10.0751 27.375 10.0501 27.575Z" fill="#F3F3F3"/>
<path d="M10.0751 27.575C10.025 27.8 9.82503 27.9252 9.62503 27.9001L4.50013 26.8751C4.30013 26.825 4.15019 26.625 4.20026 26.4003C4.25006 26.175 4.45006 26.0501 4.65006 26.0751L9.77523 27.1001C9.97523 27.1502 10.1001 27.3502 10.0751 27.575ZM4.25006 26.4C4.22503 26.575 4.3249 26.7499 4.50013 26.8L9.62529 27.825C9.80026 27.8501 9.97523 27.7502 10.0253 27.5499C10.0501 27.375 9.95019 27.2 9.77497 27.1499L4.65032 26.1252C4.45032 26.1001 4.30013 26.225 4.25006 26.4Z" fill="white"/>
<path d="M7.80026 24.5752C7.78878 24.6228 7.76803 24.6677 7.7392 24.7073C7.71036 24.7469 7.674 24.7804 7.6322 24.8059C7.5904 24.8315 7.54398 24.8485 7.49559 24.8561C7.4472 24.8636 7.39779 24.8616 7.35019 24.8501L5.10013 24.225C4.90013 24.175 4.80026 23.975 4.85006 23.775C4.86154 23.7274 4.88229 23.6825 4.91113 23.6429C4.93996 23.6033 4.97632 23.5698 5.01812 23.5443C5.05992 23.5187 5.10635 23.5017 5.15473 23.4941C5.20312 23.4865 5.25253 23.4886 5.30013 23.5001L7.55019 24.1252C7.75019 24.175 7.85006 24.3752 7.80026 24.5752Z" fill="#F3F3F3"/>
<path d="M7.82503 24.5752C7.77523 24.775 7.55019 24.9252 7.35019 24.8501L5.10013 24.225C4.90013 24.175 4.77497 23.9499 4.82503 23.7502C4.8751 23.5499 5.10013 23.4 5.30013 23.4751L7.55019 24.1001C7.75019 24.1502 7.87535 24.3505 7.82503 24.5752ZM4.90013 23.7497C4.85006 23.9249 4.95019 24.1249 5.12516 24.1747L7.37523 24.7997C7.55019 24.8498 7.72516 24.7497 7.77523 24.5497C7.82503 24.3747 7.72516 24.1747 7.55019 24.1249L5.30013 23.4999C5.12516 23.4748 4.95019 23.5744 4.90013 23.7497Z" fill="white"/>
<path d="M11.3252 23.3752C11.2503 23.575 11.025 23.6501 10.8503 23.575L6.02503 21.575C5.85006 21.5001 5.75019 21.2751 5.82503 21.1001C5.90013 20.9001 6.12516 20.825 6.30013 20.9001L11.1252 22.9001C11.3252 22.975 11.4003 23.2003 11.3252 23.3752Z" fill="#F3F3F3"/>
<path d="M11.3502 23.4C11.3136 23.4961 11.2404 23.5737 11.1466 23.6159C11.0529 23.6581 10.9462 23.6614 10.8501 23.625L6.02503 21.625C5.82503 21.5502 5.75019 21.3252 5.82503 21.1001C5.86164 21.0041 5.93484 20.9264 6.02859 20.8843C6.12234 20.8421 6.22899 20.8388 6.32516 20.8751L11.1502 22.8751C11.3502 22.975 11.425 23.2003 11.3502 23.4ZM5.8751 21.1252C5.80026 21.3001 5.8751 21.5001 6.05006 21.575L10.8751 23.575C11.0501 23.6501 11.225 23.5499 11.3001 23.375C11.375 23.2 11.3001 23 11.1252 22.9252L6.30013 20.9252C6.12516 20.8751 5.92516 20.9502 5.8751 21.1252Z" fill="white"/>
<path d="M9.70013 20C9.60026 20.175 9.40026 20.2501 9.22529 20.175L7.15019 19.1252C6.97522 19.0501 6.90013 18.825 7.00026 18.625C7.10013 18.4501 7.30013 18.375 7.4751 18.4501L9.54994 19.5001C9.72516 19.6 9.80026 19.8253 9.70013 20Z" fill="#F3F3F3"/>
<path d="M9.72516 20.025C9.62503 20.225 9.4 20.3001 9.2 20.2L7.12516 19.1499C6.92516 19.0501 6.85006 18.825 6.95019 18.625C7.05006 18.425 7.27535 18.3499 7.4751 18.4501L9.54994 19.5001C9.75019 19.575 9.82503 19.8253 9.72516 20.025ZM7.02503 18.6501C6.95019 18.825 7.00026 19.025 7.17523 19.1001L9.25006 20.1502C9.40026 20.225 9.60026 20.1502 9.70013 20C9.77497 19.825 9.72516 19.625 9.55019 19.5499L7.44981 18.5004C7.29987 18.4255 7.09987 18.4754 7.02477 18.6503L7.02503 18.6501Z" fill="white"/>
<path d="M13.375 19.5249C13.2501 19.7001 13.0501 19.7502 12.8751 19.625L8.54994 16.7502C8.37523 16.6501 8.35019 16.425 8.45006 16.2501C8.55019 16.0751 8.77523 16.025 8.95019 16.1499L13.3001 19.0501C13.4501 19.1502 13.5001 19.3752 13.375 19.5249Z" fill="#F3F3F3"/>
<path d="M13.4 19.5499C13.2751 19.7252 13.025 19.775 12.8503 19.6751L8.52516 16.775C8.35019 16.6501 8.30013 16.425 8.42503 16.2253C8.55019 16.0501 8.80026 16 8.97523 16.1001L13.3001 19C13.5001 19.1252 13.5252 19.375 13.4 19.5499ZM8.4751 16.2501C8.37523 16.4 8.40026 16.625 8.54993 16.7249L12.9001 19.6253C13.0501 19.7254 13.2501 19.6754 13.3502 19.5254C13.4501 19.3752 13.425 19.1502 13.2754 19.0503L8.9249 16.1502C8.77497 16.0501 8.57522 16.1001 8.4751 16.2501Z" fill="white"/>
<path d="M12.4501 15.9001C12.3252 16.0501 12.1001 16.1001 11.9502 15.975L10.1252 14.5502C9.97523 14.425 9.95019 14.2 10.0751 14.0501C10.2 13.9001 10.425 13.8501 10.5752 13.9752L12.4 15.4C12.5502 15.5252 12.5752 15.7499 12.4501 15.9001Z" fill="#F3F3F3"/>
<path d="M12.4751 15.9249C12.3502 16.1001 12.1001 16.1252 11.9252 16L10.1001 14.5752C9.92516 14.4503 9.90013 14.2003 10.0253 14.0255C10.1502 13.8503 10.4003 13.8253 10.575 13.9505L12.4 15.3752C12.5752 15.5004 12.6003 15.7502 12.4751 15.9254V15.9249ZM10.0751 14.0501C9.95019 14.2 9.97523 14.4 10.1252 14.5249L11.9502 15.9502C12.1001 16.0501 12.3001 16.025 12.425 15.8751C12.5502 15.7252 12.5252 15.5252 12.3752 15.4003L10.5502 13.975C10.4003 13.8751 10.1997 13.9001 10.0751 14.0501Z" fill="white"/>
<path d="M16.175 16.1499C16.0253 16.3001 15.8 16.3001 15.6751 16.1499L11.9505 12.4751C11.8005 12.3252 11.8253 12.1001 11.9505 11.975C12.1004 11.8253 12.3254 11.8253 12.4503 11.975L16.1505 15.6501C16.3004 15.775 16.3004 16.025 16.1755 16.1502L16.175 16.1499Z" fill="#F3F3F3"/>
<path d="M16.175 16.1752C16.1016 16.2473 16.0029 16.2876 15.9001 16.2876C15.7973 16.2876 15.6986 16.2473 15.6253 16.1752L11.9249 12.4999C11.8527 12.4265 11.8123 12.3277 11.8123 12.2248C11.8123 12.1218 11.8527 12.023 11.9249 11.9497C11.9983 11.8776 12.097 11.8372 12.1999 11.8372C12.3027 11.8372 12.4015 11.8776 12.4748 11.9497L16.175 15.6248C16.3499 15.7747 16.3499 16.0248 16.175 16.1747V16.1752ZM11.9755 11.9997C11.8503 12.1249 11.8503 12.3499 11.9755 12.4746L15.6754 16.1497C15.8005 16.2748 16.0253 16.2748 16.1502 16.1497C16.2754 16.0248 16.2754 15.7997 16.1502 15.6748L12.4503 11.975C12.3254 11.8501 12.1252 11.8498 11.9755 11.9997Z" fill="white"/>
<path d="M15.9502 12.425C15.8003 12.5502 15.5752 12.5502 15.4501 12.4L13.9249 10.6501C13.8003 10.5001 13.825 10.2751 13.9752 10.1502C14.1249 10.025 14.3502 10.025 14.4751 10.175L16.0003 11.9252C16.1252 12.0501 16.1001 12.2751 15.9502 12.425Z" fill="#F3F3F3"/>
<path d="M15.9752 12.425C15.8003 12.575 15.5752 12.5502 15.425 12.4L13.9001 10.6501C13.7502 10.5001 13.7752 10.2501 13.9502 10.1001C14.1252 9.94994 14.3502 9.97497 14.5001 10.1252L16.0253 11.8748C16.1502 12.0501 16.1502 12.3001 15.9752 12.425ZM13.9752 10.1502C13.825 10.2751 13.825 10.4751 13.9252 10.625L15.4503 12.375C15.5752 12.5001 15.7752 12.5252 15.9252 12.4C16.0751 12.2751 16.0751 12.0748 15.9752 11.9252L14.4501 10.175C14.3252 10.0253 14.1249 10.0253 13.9752 10.1502Z" fill="white"/>
<path d="M19.5502 13.3752C19.3752 13.5001 19.1502 13.4501 19.0501 13.2751L16.1252 8.94993C16.025 8.77497 16.0751 8.54993 16.225 8.45006C16.4 8.32516 16.625 8.37523 16.7252 8.55019L19.625 12.8751C19.7502 13.0501 19.7001 13.2754 19.5502 13.3752Z" fill="#F3F3F3"/>
<path d="M19.5502 13.4C19.3752 13.5252 19.1252 13.4748 19 13.3001L16.1001 8.97497C15.9752 8.8 16.0253 8.55019 16.225 8.42529C16.4 8.30013 16.6501 8.35019 16.7752 8.52516L19.6751 12.8501C19.8 13.0501 19.7499 13.2751 19.5502 13.4ZM16.2498 8.4751C16.0999 8.57497 16.0498 8.77497 16.1499 8.92516L19.0498 13.2501C19.1499 13.4 19.3499 13.425 19.5246 13.3249C19.6748 13.225 19.7249 13.025 19.6248 12.8751L16.7252 8.57497C16.625 8.42529 16.4 8.37497 16.2503 8.4751H16.2498Z" fill="white"/>
<path d="M20.0751 9.6751C19.9001 9.77497 19.6751 9.72516 19.5752 9.55019L18.425 7.52516C18.3252 7.35019 18.4 7.12516 18.5752 7.02503C18.7502 6.92516 18.9752 6.97497 19.0751 7.15019L20.225 9.17497C20.3001 9.34993 20.2498 9.57497 20.0751 9.6751Z" fill="#F3F3F3"/>
<path d="M20.0751 9.70013C19.8751 9.8 19.6501 9.75019 19.5502 9.57497L18.4 7.55019C18.3001 7.37497 18.3502 7.12516 18.5502 7.02503C18.7502 6.92516 18.9752 6.97497 19.0751 7.15019L20.225 9.17497C20.3252 9.34993 20.2748 9.57497 20.0751 9.70013ZM18.5752 7.05006C18.425 7.14994 18.3502 7.34994 18.4501 7.50013L19.6003 9.52516C19.7001 9.67484 19.9001 9.72516 20.0501 9.65006C20.2003 9.55019 20.2751 9.34993 20.1752 9.2L19.025 7.17497C18.9502 7.02529 18.7252 6.94994 18.5752 7.05006Z" fill="white"/>
<path d="M23.4 11.3252C23.2003 11.4 23 11.3252 22.9252 11.1502L20.9001 6.3249C20.8253 6.14994 20.9252 5.9249 21.1001 5.84981C21.3001 5.77497 21.5001 5.84981 21.575 6.02477L23.6 10.8498C23.6751 11.0248 23.5752 11.2498 23.4 11.3246V11.3252Z" fill="#F3F3F3"/>
<path d="M23.4 11.3502C23.2003 11.425 22.9752 11.3502 22.8751 11.1499L20.8501 6.32516C20.8137 6.22899 20.817 6.12234 20.8592 6.02859C20.9014 5.93484 20.979 5.86164 21.0751 5.82503C21.2751 5.75019 21.5001 5.82503 21.6003 6.02503L23.625 10.8501C23.7001 11.025 23.6 11.2501 23.4 11.3502ZM21.1252 5.8751C20.9502 5.94994 20.8751 6.15019 20.9502 6.30013L22.975 11.1249C23.0498 11.2999 23.2498 11.3747 23.4248 11.2999C23.5997 11.225 23.6751 11.0248 23.5997 10.8748L21.575 6.04981C21.4748 5.87484 21.2999 5.79974 21.1249 5.87484L21.1252 5.8751Z" fill="white"/>
<path d="M24.625 7.77523C24.425 7.85006 24.225 7.74994 24.1502 7.55019L23.425 5.34994C23.3502 5.17497 23.4751 4.94993 23.6501 4.90013C23.825 4.85006 24.0501 4.92516 24.1249 5.12516L24.8501 7.32516C24.9249 7.50013 24.825 7.70039 24.625 7.77523Z" fill="#F3F3F3"/>
<path d="M24.6501 7.8C24.5539 7.83624 24.4473 7.8329 24.3537 7.79073C24.26 7.74855 24.1868 7.67097 24.1502 7.57497L23.425 5.37497C23.3502 5.17497 23.4751 4.95019 23.6754 4.8751C23.7715 4.83886 23.8781 4.8422 23.9718 4.88437C24.0655 4.92655 24.1386 5.00413 24.1752 5.10013L24.9001 7.30013C24.9502 7.50013 24.8501 7.72516 24.6501 7.8ZM23.6751 4.92516C23.5001 4.97497 23.4 5.17497 23.4501 5.34994L24.1752 7.55019C24.225 7.72516 24.425 7.8 24.6003 7.74994C24.7752 7.70013 24.8751 7.50013 24.825 7.32516L24.1001 5.1249C24.0874 5.08246 24.0658 5.04318 24.0369 5.00962C24.008 4.97605 23.9723 4.94896 23.9322 4.93009C23.8921 4.91122 23.8485 4.90101 23.8042 4.90012C23.7599 4.89922 23.7159 4.90767 23.6751 4.9249V4.92516Z" fill="white"/>
<path d="M27.5752 10.0501C27.3752 10.1001 27.1752 9.97523 27.1502 9.77497L26.1001 4.65006C26.0501 4.45006 26.2003 4.2751 26.4 4.22503C26.6003 4.17497 26.8 4.29987 26.825 4.50013L27.8754 9.62529C27.9001 9.8 27.7752 10 27.5752 10.0501Z" fill="#F3F3F3"/>
<path d="M27.5752 10.0751C27.3502 10.1252 27.1502 9.97497 27.1001 9.77497L26.0501 4.65006C26 4.45006 26.1502 4.22503 26.3502 4.2C26.5752 4.14994 26.7752 4.30013 26.825 4.50013L27.8754 9.62529C27.9252 9.82503 27.8003 10.0253 27.5752 10.0751ZM26.4003 4.25006C26.225 4.2751 26.1001 4.45006 26.1252 4.65006L27.1752 9.77523C27.2003 9.94994 27.4 10.0751 27.5752 10.025C27.7502 10 27.8751 9.82503 27.8501 9.62503L26.8 4.49987C26.7502 4.32516 26.5755 4.22503 26.4003 4.25006Z" fill="white"/>
<path d="M29.4751 6.8C29.2751 6.82503 29.1001 6.70013 29.0501 6.50013L28.7502 4.2C28.7252 4 28.8751 3.82503 29.0754 3.8C29.2751 3.77497 29.4501 3.90013 29.5001 4.10013L29.8 6.4C29.825 6.6 29.6751 6.77497 29.4751 6.8Z" fill="#F3F3F3"/>
<path d="M29.4751 6.82503C29.2501 6.85006 29.0501 6.70013 29.025 6.49987L28.7252 4.2C28.7001 4 28.8501 3.8 29.0751 3.77497C29.3001 3.75019 29.5001 3.90013 29.5252 4.10013L29.825 6.4C29.8501 6.6 29.7001 6.8 29.4751 6.82503ZM29.1001 3.82503C28.9252 3.85006 28.775 4.02503 28.8 4.2L29.1001 6.50013C29.1252 6.6751 29.3001 6.8 29.4751 6.77497C29.6501 6.75019 29.8003 6.57497 29.7752 6.4L29.4751 4.10013C29.4501 3.92516 29.2751 3.8 29.1001 3.82503Z" fill="white"/>
<path d="M32.1752 61.575C48.5229 61.575 61.7752 48.3226 61.7752 31.975C61.7752 15.6273 48.5229 2.37497 32.1752 2.37497C15.8276 2.37497 2.57523 15.6273 2.57523 31.975C2.57523 48.3226 15.8276 61.575 32.1752 61.575Z" fill="url(#paint2_linear_1683_5659)" fill-opacity="0.2"/>
<path d="M52.6751 13.2L28.8 28.5001H28.775V28.5249L28.7499 28.5499L13.8503 53.1252L35.7502 35.5001L35.7752 35.4754V35.4503L52.6754 13.2003L52.6751 13.2Z" fill="black" fill-opacity="0.05"/>
<path d="M52.225 11.775L28.625 28.5499L35.625 35.4999L52.225 11.775Z" fill="#CD151E"/>
<path d="M28.6501 28.5001L32.1752 31.975L52.225 11.775L28.6501 28.5001Z" fill="#FA5153"/>
<path d="M28.6501 28.5001L35.6501 35.4498L12.0501 52.225L28.6501 28.4999V28.5001Z" fill="#ACACAC"/>
<path d="M12.0501 52.225L32.175 31.975L28.6498 28.4999L12.0501 52.225Z" fill="#EEEEEE"/>
<defs>
<linearGradient id="paint0_linear_1683_5659" x1="3200" y1="6400" x2="3200" y2="0" gradientUnits="userSpaceOnUse">
<stop offset="0.25" stop-color="#DBDBDA"/>
<stop offset="1" stop-color="white"/>
</linearGradient>
<radialGradient id="paint1_radial_1683_5659" cx="0" cy="0" r="1" gradientUnits="userSpaceOnUse" gradientTransform="translate(3649.6 2497.09) scale(3906.05)">
<stop stop-color="#2ABCE1"/>
<stop offset="0.11363" stop-color="#2ABBE1"/>
<stop offset="1" stop-color="#3375F8"/>
</radialGradient>
<linearGradient id="paint2_linear_1683_5659" x1="3139.2" y1="2284.99" x2="1645.63" y2="4964.61" gradientUnits="userSpaceOnUse">
<stop stop-opacity="0"/>
<stop offset="1"/>
</linearGradient>
</defs>
</svg>
